<svg width="35" height="36" viewBox="0 0 35 36" fill="none" xmlns="http://www.w3.org/2000/svg">
    <g clip-path="url(#clip0_72_380)">
        <path
            d="M34.1822 4.2116C33.4633 2.76006 32.3161 1.58013 30.9049 0.840668C29.3004 0 27.2004 0 22.9998 0H11.9997C7.79964 0 5.69912 0 4.09461 0.840668C2.68389 1.58064 1.53623 2.76057 0.817316 4.2116C0 5.86247 0 8.02249 0 12.3425V23.6564C0 27.9775 0 30.1375 0.817316 31.7884C1.53623 33.2399 2.68389 34.4199 4.09511 35.1593C5.69962 36 7.79964 36 12.0002 36H23.0003C27.2004 36 29.3009 36 30.9054 35.1593C32.3166 34.4194 33.4643 33.2394 34.1827 31.7884C35 30.138 35 27.9775 35 23.6569V12.343C35 8.02249 35 5.86247 34.1822 4.2116ZM12.3873 26.9509H8.76004C8.39104 26.9509 8.12296 26.6215 8.17216 26.2559L11.0217 7.65638C11.095 7.17563 11.5127 6.81106 11.9942 6.81106C19.3997 6.81106 20.0222 6.62568 21.9134 7.38115C24.8353 8.54662 25.1028 11.3573 24.0526 14.3982C23.0068 17.5291 20.5278 18.8737 17.2409 18.914C15.1309 18.9491 13.8612 18.5639 13.5796 20.1244C13.4094 21.0843 12.7337 25.5603 12.5339 26.826C12.5188 26.9169 12.4847 26.9509 12.3873 26.9509ZM26.6828 17.559C25.8805 21.735 23.1876 23.1757 19.7351 23.1757C19.0061 23.1757 18.5347 23.06 18.3108 24.1604C17.5572 29.0314 17.6446 28.4562 17.6104 28.7263C17.5271 29.1559 17.1822 29.4709 16.764 29.4709H13.6765C13.3316 29.4709 13.1127 29.1812 13.1614 28.8259C13.1614 28.8259 13.3813 27.3609 14.4792 20.3392C14.5179 20.0345 14.7122 19.8693 15.0089 19.8693C17.6345 19.8693 23.0119 20.3645 24.9522 14.673C25.132 14.1173 25.2826 13.5622 25.38 12.9921C25.4046 12.8367 25.4382 12.863 25.5266 12.9276V12.9266C26.9072 13.9877 26.9985 15.8183 26.6828 17.559Z"
            fill="#D9D9D9" />
    </g>
    <defs>
        <clipPath id="clip0_72_380">
            <rect width="35" height="36" fill="white" />
        </clipPath>
    </defs>
</svg>