<svg width="35" height="36" viewBox="0 0 35 36" fill="none" xmlns="http://www.w3.org/2000/svg">
    <g clip-path="url(#clip0_72_382)">
        <path
            d="M0 12.3425C0 8.02249 0 5.86195 0.817316 4.2116C1.53623 2.76057 2.68389 1.58064 4.09511 0.840668C5.69962 0 7.79964 0 11.9997 0H22.9998C27.1999 0 29.3004 0 30.9049 0.840668C32.3161 1.58064 33.4638 2.76057 34.1822 4.2116C34.9995 5.86195 34.9995 8.02249 34.9995 12.3425V23.6564C34.9995 27.977 34.9995 30.1375 34.1822 31.7879C33.4633 33.2394 32.3161 34.4194 30.9049 35.1588C29.3004 35.9995 27.2004 35.9995 22.9998 35.9995H11.9997C7.79964 35.9995 5.69912 35.9995 4.09461 35.1588C2.68389 34.4194 1.53623 33.2394 0.817316 31.7884C0 30.1375 0 27.9775 0 23.6569V12.3425ZM7.83328 10.2853C6.95873 10.2853 6.24986 11.1079 6.24986 12.1226V21.0306C6.24986 23.6177 8.05769 25.7147 10.2872 25.7147L19.6668 25.6228C20.5413 25.6228 21.2502 24.8002 21.2502 23.785V14.786C21.2502 12.199 19.105 10.2853 16.875 10.2853H7.83328ZM23.3904 13.7925C22.8246 14.3683 22.5003 15.1986 22.5003 16.0713V19.7991C22.5003 20.6718 22.8246 21.5026 23.3904 22.0779L26.9112 25.2675C27.6276 25.9962 28.7501 25.4064 28.7501 24.3009V11.7451C28.7501 10.64 27.6276 10.0498 26.9112 10.7784L23.3904 13.7925Z"
            fill="#D9D9D9" />
    </g>
    <defs>
        <clipPath id="clip0_72_382">
            <rect width="35" height="36" fill="white" />
        </clipPath>
    </defs>
</svg>