<svg xmlns="http://www.w3.org/2000/svg" fill="none" viewBox="0 0 256 256">
  <path d="M128,0.002c-70.693,0-128,57.306-128,128c0,70.691,57.307,127.997,128,127.997s128-57.305,128-127.997
    C256,57.308,198.693,0.002,128,0.002z M210.338,154.467c-4.551,5.538-9.301,10.906-13.781,16.469
    c-4.145,5.15-8.632,9.9-13.307,14.438c-5.638,5.469-11.45,10.925-18.213,14.819c-6.168,3.543-12.949,4.818-19.949,2.081
    c-5-1.95-9.65-4.413-13.794-8.081c-2.406-2.132-4.328-4.645-6.497-6.957c-2.766-2.938-2.856-6.425-1.49-10.074
    c2.019-5.4,5.54-9.781,8.918-14.27c4.906-6.519,9.938-12.918,11.913-21.256c1.75-7.369,1.344-14.422-2.763-20.766
    c-4.388-6.763-9.834-12.628-15.547-18.2c-0.778-0.763-1.875-1.172-3-1.844c-0.722,3.601,0.984,5.956,2.443,8.159
    c2.869,4.338,4.747,8.813,4.163,14.223c-0.372,3.425,0.053,6.847-0.781,10.353c-0.494,2.075-1.594,3.594-2.516,5.112
    c-1.753,2.913-4.31,5.275-6.397,7.981c-5.55,7.194-12.641,12.944-18.097,20.094c-5.35,7.019-12.484,11.856-18.175,18.388
    c-3.818,4.388-8.831,5.225-14.74,3.8c-5.938-1.438-11.703-3.2-17.447-5.237c-5.769-2.05-11.307-4.563-16.188-8.35
    c-2.294-1.775-3.597-4.488-3.693-7.551c-0.116-3.693,0.019-7.399-0.054-11.087c-0.021-1.237,0.487-2.175,0.932-3.25
    c2.919-6.994,7.356-12.813,12.175-18.519c7.763-9.2,16.3-17.582,24.506-26.313c1.385-1.476,2.656-3.153,5.21-3.488
    c-0.682,2.854-2.297,5.106-3.932,7.054c-4.56,5.438-7.134,11.847-8.631,18.656c-0.757,3.446-0.828,7.497,1.063,10.659
    c1.728,2.9,4.513,4.568,7.834,5.95c6.731,2.8,13.741,4.037,20.65,5.919c3.544,0.962,6.953,0.543,10.622,0.906
    c1.605-5.051-0.385-9.476-2.591-13.463c-3.104-5.606-6.804-10.85-8.269-17.591c1.969-4.443,5.222-8.409,8.719-12.169
    c3.146-3.384,6.281-6.797,9.628-9.956c2.634-2.481,4.196-5.847,6.862-8.278c1.141-1.04,0.753-2.209-0.112-3.524
    c-2.188-3.313-4.409-6.659-5.213-11.153c4.319-3.744,7.784-8.513,12.484-12.146c3.15-2.435,6.041-5.385,9.047-8.101
    c1.913-1.725,3.844-3.431,5.844-5.05c1.213-0.984,2.563-0.76,3.351,0.563c3.662,6.131,8.98,10.729,13.469,16.094
    c5.881,7.028,11.743,14.144,16.456,22.106c2.712,4.571,5.118,9.378,4.581,15.144c-0.318,3.443-1.075,6.838-2.406,9.856
    c-2.65,6.024-5.725,11.875-8.987,17.568c-4.375,7.65-9.394,14.906-12.875,23.038c1.962,5.762,6.688,8.662,11.631,9.912
    c6.819,1.713,13.807,3.213,20.956,3.313c2.851,0.037,4.463-1.025,5.45-3.719c1.388-3.813,2.538-7.619,2.737-11.769
    c0.363-7.362-1.331-14.257-3.556-21.125c-1.581-4.888-2.95-9.859-4.206-14.851c-0.838-3.347,0.668-6.203,2.8-8.48
    c6.306-6.754,12.581-13.566,19.274-19.885c2.388-2.256,4.888-4.619,7.775-6.359c0.925-0.56,1.693-0.766,3.013-0.31
    c-0.525,4.354,0.837,8.625,1.188,13.044c0.325,4.144,1.381,8.256,2.5,12.328c1.45,5.281,3.087,10.521,3.313,16.182
    c0.225,5.934-1.788,10.956-4.638,15.656C217.15,145.842,213.831,150.217,210.338,154.467z" />
  <style>
    path {
      fill: #000;
    }

    @media (prefers-color-scheme: dark) {
      path {
        fill: #FFF;
      }
    }
  </style>
</svg>